<svg xmlns="http://www.w3.org/2000/svg" viewBox="0 0 350 220" width="350" height="220">
  <defs>
    <!-- Sparkle/twinkle effect -->
    <filter id="sparkle" height="400%" width="400%" x="-150%" y="-150%">
      <feGaussianBlur stdDeviation="6" result="coloredBlur"/>
      <feColorMatrix type="matrix" values="1 0 0 0 0  0 1 0 0 0  0 0 1 0 0  0 0 0 0.8 0"/>
      <feMerge>
        <feMergeNode/>
        <feMergeNode in="SourceGraphic"/>
      </feMerge>
    </filter>
    
    <!-- Intense center glow -->
    <radialGradient id="coreGlow">
      <stop offset="0%" style="stop-color:#ffffff;stop-opacity:1" />
      <stop offset="30%" style="stop-color:#ffffff;stop-opacity:0.8" />
      <stop offset="100%" style="stop-color:#ffffff;stop-opacity:0" />
    </radialGradient>
    
    <!-- Star shape definition -->
    <path id="star" d="M 0,-8 L 2,-2 L 8,-2 L 3,2 L 5,8 L 0,4 L -5,8 L -3,2 L -8,-2 L -2,-2 Z"/>
    
    <!-- Color gradients for LED lights -->
    <radialGradient id="warmWhite" cx="50%" cy="50%">
      <stop offset="0%" style="stop-color:#fff9e6;stop-opacity:1" />
      <stop offset="100%" style="stop-color:#ffe066;stop-opacity:1" />
    </radialGradient>
    
    <radialGradient id="coolBlue" cx="50%" cy="50%">
      <stop offset="0%" style="stop-color:#e3f2fd;stop-opacity:1" />
      <stop offset="100%" style="stop-color:#42a5f5;stop-opacity:1" />
    </radialGradient>
    
    <radialGradient id="mintGreen" cx="50%" cy="50%">
      <stop offset="0%" style="stop-color:#e8f5e9;stop-opacity:1" />
      <stop offset="100%" style="stop-color:#66bb6a;stop-opacity:1" />
    </radialGradient>
    
    <radialGradient id="rosePink" cx="50%" cy="50%">
      <stop offset="0%" style="stop-color:#fce4ec;stop-opacity:1" />
      <stop offset="100%" style="stop-color:#ec407a;stop-opacity:1" />
    </radialGradient>
    
    <radialGradient id="lavender" cx="50%" cy="50%">
      <stop offset="0%" style="stop-color:#f3e5f5;stop-opacity:1" />
      <stop offset="100%" style="stop-color:#ab47bc;stop-opacity:1" />
    </radialGradient>
    
    <radialGradient id="peach" cx="50%" cy="50%">
      <stop offset="0%" style="stop-color:#fff3e0;stop-opacity:1" />
      <stop offset="100%" style="stop-color:#ffa726;stop-opacity:1" />
    </radialGradient>
  </defs>
  
  <!-- Thin copper wire -->
  <path d="M 10,90 Q 50,65 90,90 T 170,90 T 250,90 T 330,90" 
        stroke="#b8860b" stroke-width="1.5" fill="none" stroke-linecap="round" opacity="0.6"/>
  
  <!-- Star lights with sparkle effect -->
  
  <!-- Warm white star -->
  <g transform="translate(30, 85)" filter="url(#sparkle)">
    <circle cx="0" cy="0" r="12" fill="url(#warmWhite)" opacity="0.4"/>
    <circle cx="0" cy="0" r="6" fill="url(#coreGlow)"/>
    <use href="#star" fill="#fff9e6"/>
    <circle cx="0" cy="0" r="2" fill="#ffffff"/>
  </g>
  
  <!-- Cool blue star -->
  <g transform="translate(70, 60)" filter="url(#sparkle)">
    <circle cx="0" cy="0" r="12" fill="url(#coolBlue)" opacity="0.4"/>
    <circle cx="0" cy="0" r="6" fill="url(#coreGlow)"/>
    <use href="#star" fill="#e3f2fd"/>
    <circle cx="0" cy="0" r="2" fill="#ffffff"/>
  </g>
  
  <!-- Mint green star -->
  <g transform="translate(110, 85)" filter="url(#sparkle)">
    <circle cx="0" cy="0" r="12" fill="url(#mintGreen)" opacity="0.4"/>
    <circle cx="0" cy="0" r="6" fill="url(#coreGlow)"/>
    <use href="#star" fill="#e8f5e9"/>
    <circle cx="0" cy="0" r="2" fill="#ffffff"/>
  </g>
  
  <!-- Rose pink star -->
  <g transform="translate(150, 60)" filter="url(#sparkle)">
    <circle cx="0" cy="0" r="12" fill="url(#rosePink)" opacity="0.4"/>
    <circle cx="0" cy="0" r="6" fill="url(#coreGlow)"/>
    <use href="#star" fill="#fce4ec"/>
    <circle cx="0" cy="0" r="2" fill="#ffffff"/>
  </g>
  
  <!-- Lavender star -->
  <g transform="translate(190, 85)" filter="url(#sparkle)">
    <circle cx="0" cy="0" r="12" fill="url(#lavender)" opacity="0.4"/>
    <circle cx="0" cy="0" r="6" fill="url(#coreGlow)"/>
    <use href="#star" fill="#f3e5f5"/>
    <circle cx="0" cy="0" r="2" fill="#ffffff"/>
  </g>
  
  <!-- Peach star -->
  <g transform="translate(230, 60)" filter="url(#sparkle)">
    <circle cx="0" cy="0" r="12" fill="url(#peach)" opacity="0.4"/>
    <circle cx="0" cy="0" r="6" fill="url(#coreGlow)"/>
    <use href="#star" fill="#fff3e0"/>
    <circle cx="0" cy="0" r="2" fill="#ffffff"/>
  </g>
  
  <!-- Warm white star -->
  <g transform="translate(270, 85)" filter="url(#sparkle)">
    <circle cx="0" cy="0" r="12" fill="url(#warmWhite)" opacity="0.4"/>
    <circle cx="0" cy="0" r="6" fill="url(#coreGlow)"/>
    <use href="#star" fill="#fff9e6"/>
    <circle cx="0" cy="0" r="2" fill="#ffffff"/>
  </g>
  
  <!-- Cool blue star -->
  <g transform="translate(310, 60)" filter="url(#sparkle)">
    <circle cx="0" cy="0" r="12" fill="url(#coolBlue)" opacity="0.4"/>
    <circle cx="0" cy="0" r="6" fill="url(#coreGlow)"/>
    <use href="#star" fill="#e3f2fd"/>
    <circle cx="0" cy="0" r="2" fill="#ffffff"/>
  </g>
  
  <!-- Add some sparkle rays -->
  <g opacity="0.6">
    <line x1="30" y1="75" x2="30" y2="70" stroke="#ffffff" stroke-width="1.5" stroke-linecap="round"/>
    <line x1="35" y1="80" x2="38" y2="77" stroke="#ffffff" stroke-width="1.5" stroke-linecap="round"/>
    
    <line x1="150" y1="50" x2="150" y2="45" stroke="#ffffff" stroke-width="1.5" stroke-linecap="round"/>
    <line x1="155" y1="55" x2="158" y2="52" stroke="#ffffff" stroke-width="1.5" stroke-linecap="round"/>
    
    <line x1="270" y1="75" x2="270" y2="70" stroke="#ffffff" stroke-width="1.5" stroke-linecap="round"/>
    <line x1="275" y1="80" x2="278" y2="77" stroke="#ffffff" stroke-width="1.5" stroke-linecap="round"/>
  </g>
</svg>